<mxfile host="app.diagrams.net" modified="2024-06-28T09:25:48.153Z" agent="Mozilla/5.0 (Macintosh; Intel Mac OS X 10_15_7) AppleWebKit/537.36 (KHTML, like Gecko) Chrome/126.0.0.0 Safari/537.36" etag="mIf5WZ9R4oO20v_gkxTU" version="24.6.2" type="device">
  <diagram name="Page-1" id="k7vMvwcZrxebOX0wooAK">
    <mxGraphModel dx="1306" dy="826" grid="1" gridSize="10" guides="1" tooltips="1" connect="1" arrows="1" fold="1" page="1" pageScale="1" pageWidth="827" pageHeight="1169" math="0" shadow="0">
      <root>
        <mxCell id="0" />
        <mxCell id="1" parent="0" />
        <mxCell id="QId_3jVT4EkfqwvEsrNk-15" style="edgeStyle=orthogonalEdgeStyle;rounded=0;orthogonalLoop=1;jettySize=auto;html=1;exitX=1;exitY=0.5;exitDx=0;exitDy=0;entryX=0;entryY=0.25;entryDx=0;entryDy=0;" edge="1" parent="1" source="QId_3jVT4EkfqwvEsrNk-1" target="QId_3jVT4EkfqwvEsrNk-3">
          <mxGeometry relative="1" as="geometry" />
        </mxCell>
        <mxCell id="QId_3jVT4EkfqwvEsrNk-33" style="edgeStyle=orthogonalEdgeStyle;rounded=0;orthogonalLoop=1;jettySize=auto;html=1;entryX=0;entryY=0.5;entryDx=0;entryDy=0;" edge="1" parent="1" source="QId_3jVT4EkfqwvEsrNk-1" target="QId_3jVT4EkfqwvEsrNk-14">
          <mxGeometry relative="1" as="geometry" />
        </mxCell>
        <mxCell id="QId_3jVT4EkfqwvEsrNk-1" value="user" style="ellipse;whiteSpace=wrap;html=1;" vertex="1" parent="1">
          <mxGeometry x="20" y="210" width="120" height="80" as="geometry" />
        </mxCell>
        <mxCell id="QId_3jVT4EkfqwvEsrNk-18" style="edgeStyle=orthogonalEdgeStyle;rounded=0;orthogonalLoop=1;jettySize=auto;html=1;exitX=1;exitY=0.5;exitDx=0;exitDy=0;entryX=0;entryY=0.5;entryDx=0;entryDy=0;" edge="1" parent="1" source="QId_3jVT4EkfqwvEsrNk-2" target="QId_3jVT4EkfqwvEsrNk-3">
          <mxGeometry relative="1" as="geometry" />
        </mxCell>
        <mxCell id="QId_3jVT4EkfqwvEsrNk-2" value="user" style="ellipse;whiteSpace=wrap;html=1;" vertex="1" parent="1">
          <mxGeometry x="20" y="410" width="120" height="80" as="geometry" />
        </mxCell>
        <mxCell id="QId_3jVT4EkfqwvEsrNk-19" style="edgeStyle=orthogonalEdgeStyle;rounded=0;orthogonalLoop=1;jettySize=auto;html=1;entryX=0;entryY=0.5;entryDx=0;entryDy=0;" edge="1" parent="1" source="QId_3jVT4EkfqwvEsrNk-3" target="QId_3jVT4EkfqwvEsrNk-4">
          <mxGeometry relative="1" as="geometry" />
        </mxCell>
        <mxCell id="QId_3jVT4EkfqwvEsrNk-20" style="edgeStyle=orthogonalEdgeStyle;rounded=0;orthogonalLoop=1;jettySize=auto;html=1;entryX=0;entryY=0.5;entryDx=0;entryDy=0;" edge="1" parent="1" source="QId_3jVT4EkfqwvEsrNk-3" target="QId_3jVT4EkfqwvEsrNk-5">
          <mxGeometry relative="1" as="geometry" />
        </mxCell>
        <mxCell id="QId_3jVT4EkfqwvEsrNk-21" style="edgeStyle=orthogonalEdgeStyle;rounded=0;orthogonalLoop=1;jettySize=auto;html=1;entryX=0;entryY=0.5;entryDx=0;entryDy=0;" edge="1" parent="1" source="QId_3jVT4EkfqwvEsrNk-3" target="QId_3jVT4EkfqwvEsrNk-6">
          <mxGeometry relative="1" as="geometry" />
        </mxCell>
        <mxCell id="QId_3jVT4EkfqwvEsrNk-3" value="load balancer" style="rounded=0;whiteSpace=wrap;html=1;" vertex="1" parent="1">
          <mxGeometry x="210" y="330" width="120" height="60" as="geometry" />
        </mxCell>
        <mxCell id="QId_3jVT4EkfqwvEsrNk-22" style="edgeStyle=orthogonalEdgeStyle;rounded=0;orthogonalLoop=1;jettySize=auto;html=1;entryX=0;entryY=0.5;entryDx=0;entryDy=0;" edge="1" parent="1" source="QId_3jVT4EkfqwvEsrNk-4" target="QId_3jVT4EkfqwvEsrNk-8">
          <mxGeometry relative="1" as="geometry" />
        </mxCell>
        <mxCell id="QId_3jVT4EkfqwvEsrNk-29" style="edgeStyle=orthogonalEdgeStyle;rounded=0;orthogonalLoop=1;jettySize=auto;html=1;entryX=0;entryY=0.5;entryDx=0;entryDy=0;" edge="1" parent="1" source="QId_3jVT4EkfqwvEsrNk-4" target="QId_3jVT4EkfqwvEsrNk-12">
          <mxGeometry relative="1" as="geometry" />
        </mxCell>
        <mxCell id="QId_3jVT4EkfqwvEsrNk-4" value="api server" style="whiteSpace=wrap;html=1;aspect=fixed;" vertex="1" parent="1">
          <mxGeometry x="400" y="160" width="80" height="80" as="geometry" />
        </mxCell>
        <mxCell id="QId_3jVT4EkfqwvEsrNk-23" style="edgeStyle=orthogonalEdgeStyle;rounded=0;orthogonalLoop=1;jettySize=auto;html=1;" edge="1" parent="1" source="QId_3jVT4EkfqwvEsrNk-5">
          <mxGeometry relative="1" as="geometry">
            <mxPoint x="550" y="360" as="targetPoint" />
          </mxGeometry>
        </mxCell>
        <mxCell id="QId_3jVT4EkfqwvEsrNk-5" value="api server" style="whiteSpace=wrap;html=1;aspect=fixed;" vertex="1" parent="1">
          <mxGeometry x="400" y="320" width="80" height="80" as="geometry" />
        </mxCell>
        <mxCell id="QId_3jVT4EkfqwvEsrNk-25" style="edgeStyle=orthogonalEdgeStyle;rounded=0;orthogonalLoop=1;jettySize=auto;html=1;exitX=1;exitY=0.5;exitDx=0;exitDy=0;entryX=0;entryY=0.5;entryDx=0;entryDy=0;" edge="1" parent="1" source="QId_3jVT4EkfqwvEsrNk-6" target="QId_3jVT4EkfqwvEsrNk-8">
          <mxGeometry relative="1" as="geometry" />
        </mxCell>
        <mxCell id="QId_3jVT4EkfqwvEsrNk-6" value="api server" style="whiteSpace=wrap;html=1;aspect=fixed;" vertex="1" parent="1">
          <mxGeometry x="400" y="480" width="80" height="80" as="geometry" />
        </mxCell>
        <mxCell id="QId_3jVT4EkfqwvEsrNk-26" style="edgeStyle=orthogonalEdgeStyle;rounded=0;orthogonalLoop=1;jettySize=auto;html=1;entryX=0.5;entryY=0;entryDx=0;entryDy=0;" edge="1" parent="1" source="QId_3jVT4EkfqwvEsrNk-8" target="QId_3jVT4EkfqwvEsrNk-13">
          <mxGeometry relative="1" as="geometry" />
        </mxCell>
        <mxCell id="QId_3jVT4EkfqwvEsrNk-27" style="edgeStyle=orthogonalEdgeStyle;rounded=0;orthogonalLoop=1;jettySize=auto;html=1;exitX=1;exitY=0.75;exitDx=0;exitDy=0;entryX=0;entryY=0.5;entryDx=0;entryDy=0;" edge="1" parent="1" source="QId_3jVT4EkfqwvEsrNk-8" target="QId_3jVT4EkfqwvEsrNk-11">
          <mxGeometry relative="1" as="geometry" />
        </mxCell>
        <mxCell id="QId_3jVT4EkfqwvEsrNk-8" value="messaging service" style="rounded=0;whiteSpace=wrap;html=1;" vertex="1" parent="1">
          <mxGeometry x="550" y="160" width="80" height="400" as="geometry" />
        </mxCell>
        <mxCell id="QId_3jVT4EkfqwvEsrNk-9" value="DB" style="shape=cylinder3;whiteSpace=wrap;html=1;boundedLbl=1;backgroundOutline=1;size=15;" vertex="1" parent="1">
          <mxGeometry x="700" y="200" width="70" height="110" as="geometry" />
        </mxCell>
        <mxCell id="QId_3jVT4EkfqwvEsrNk-11" value="cache" style="rhombus;whiteSpace=wrap;html=1;" vertex="1" parent="1">
          <mxGeometry x="700" y="420" width="80" height="80" as="geometry" />
        </mxCell>
        <mxCell id="QId_3jVT4EkfqwvEsrNk-12" value="S3" style="rounded=0;whiteSpace=wrap;html=1;" vertex="1" parent="1">
          <mxGeometry x="520" y="40" width="120" height="60" as="geometry" />
        </mxCell>
        <mxCell id="QId_3jVT4EkfqwvEsrNk-32" style="edgeStyle=orthogonalEdgeStyle;rounded=0;orthogonalLoop=1;jettySize=auto;html=1;entryX=0.5;entryY=1;entryDx=0;entryDy=0;" edge="1" parent="1" source="QId_3jVT4EkfqwvEsrNk-13" target="QId_3jVT4EkfqwvEsrNk-2">
          <mxGeometry relative="1" as="geometry" />
        </mxCell>
        <mxCell id="QId_3jVT4EkfqwvEsrNk-13" value="notification service" style="rounded=0;whiteSpace=wrap;html=1;" vertex="1" parent="1">
          <mxGeometry x="530" y="620" width="120" height="60" as="geometry" />
        </mxCell>
        <mxCell id="QId_3jVT4EkfqwvEsrNk-30" style="edgeStyle=orthogonalEdgeStyle;rounded=0;orthogonalLoop=1;jettySize=auto;html=1;" edge="1" parent="1" source="QId_3jVT4EkfqwvEsrNk-14">
          <mxGeometry relative="1" as="geometry">
            <mxPoint x="510" y="70" as="targetPoint" />
          </mxGeometry>
        </mxCell>
        <mxCell id="QId_3jVT4EkfqwvEsrNk-14" value="CDN" style="rhombus;whiteSpace=wrap;html=1;" vertex="1" parent="1">
          <mxGeometry x="230" y="30" width="80" height="80" as="geometry" />
        </mxCell>
        <mxCell id="QId_3jVT4EkfqwvEsrNk-28" style="edgeStyle=orthogonalEdgeStyle;rounded=0;orthogonalLoop=1;jettySize=auto;html=1;exitX=1;exitY=0.25;exitDx=0;exitDy=0;entryX=0;entryY=0.5;entryDx=0;entryDy=0;entryPerimeter=0;" edge="1" parent="1" source="QId_3jVT4EkfqwvEsrNk-8" target="QId_3jVT4EkfqwvEsrNk-9">
          <mxGeometry relative="1" as="geometry" />
        </mxCell>
      </root>
    </mxGraphModel>
  </diagram>
</mxfile>
